<svg width="120" height="120" viewBox="0 0 120 120" fill="none" xmlns="http://www.w3.org/2000/svg">
<path d="M60.0096 37.9507C47.8075 37.9507 37.9652 47.7952 37.9652 60C37.9652 72.2048 47.8075 82.0493 60.0096 82.0493C72.2117 82.0493 82.054 72.2048 82.054 60C82.054 47.7952 72.2117 37.9507 60.0096 37.9507ZM60.0096 74.3349C52.1243 74.3349 45.6779 67.9063 45.6779 60C45.6779 52.0937 52.1051 45.6651 60.0096 45.6651C67.9141 45.6651 74.3413 52.0937 74.3413 60C74.3413 67.9063 67.8949 74.3349 60.0096 74.3349ZM88.0975 37.0488C88.0975 39.9081 85.7952 42.1917 82.9557 42.1917C80.097 42.1917 77.8139 39.8889 77.8139 37.0488C77.8139 34.2086 80.1162 31.9058 82.9557 31.9058C85.7952 31.9058 88.0975 34.2086 88.0975 37.0488ZM102.698 42.2684C102.372 35.3792 100.798 29.2768 95.7526 24.249C90.7259 19.2212 84.6249 17.6477 77.7372 17.3022C70.6385 16.8993 49.3615 16.8993 42.2628 17.3022C35.3943 17.6285 29.2933 19.2021 24.2474 24.2298C19.2016 29.2576 17.6475 35.36 17.3022 42.2492C16.8993 49.3495 16.8993 70.6313 17.3022 77.7316C17.6283 84.6208 19.2016 90.7232 24.2474 95.751C29.2933 100.779 35.3751 102.352 42.2628 102.698C49.3615 103.101 70.6385 103.101 77.7372 102.698C84.6249 102.372 90.7259 100.798 95.7526 95.751C100.779 90.7232 102.352 84.6208 102.698 77.7316C103.101 70.6313 103.101 49.3687 102.698 42.2684ZM93.527 85.35C92.0306 89.1112 89.1335 92.0089 85.3539 93.5249C79.6941 95.7702 66.2641 95.252 60.0096 95.252C53.755 95.252 40.3059 95.751 34.6653 93.5249C30.9049 92.0281 28.0078 89.1304 26.4921 85.35C24.2474 79.6889 24.7654 66.2559 24.7654 60C24.7654 53.7441 24.2666 40.2919 26.4921 34.65C27.9886 30.8888 30.8857 27.9911 34.6653 26.4751C40.325 24.2298 53.755 24.748 60.0096 24.748C66.2641 24.748 79.7133 24.249 85.3539 26.4751C89.1143 27.9719 92.0114 30.8696 93.527 34.65C95.7718 40.3111 95.2538 53.7441 95.2538 60C95.2538 66.2559 95.7718 79.7081 93.527 85.35Z" fill="white"/>
</svg>
