<svg width="120" height="120" viewBox="0 0 120 120" fill="none" xmlns="http://www.w3.org/2000/svg">
<path d="M100.214 14H18.7645C15.0324 14 12 17.01 12 20.7051V100.295C12 103.99 15.0324 107 18.7645 107H100.214C103.946 107 107 103.99 107 100.295V20.7051C107 17.01 103.946 14 100.214 14ZM40.7121 93.7143H26.6317V49.3317H40.7333V93.7143H40.7121ZM33.6719 43.2701C29.1551 43.2701 25.5078 39.6788 25.5078 35.2779C25.5078 30.877 29.1551 27.2857 33.6719 27.2857C38.1674 27.2857 41.8359 30.877 41.8359 35.2779C41.8359 39.6996 38.1886 43.2701 33.6719 43.2701ZM93.4922 93.7143H79.4118V72.125C79.4118 66.9768 79.3058 60.3547 72.096 60.3547C64.7589 60.3547 63.635 65.9596 63.635 71.7513V93.7143H49.5547V49.3317H63.0625V55.3933H63.2533C65.1406 51.9058 69.7422 48.2315 76.5915 48.2315C90.8415 48.2315 93.4922 57.4277 93.4922 69.3848V93.7143Z" fill="white"/>
</svg>
