<svg width="120" height="120" viewBox="0 0 120 120" fill="none" xmlns="http://www.w3.org/2000/svg">
<path d="M111.629 83.1381C110.907 81.2134 109.549 80.1883 107.999 79.3305C107.702 79.1632 107.448 79.0167 107.214 78.9331C106.747 78.7029 106.28 78.4728 105.813 78.2218C100.974 75.6904 97.196 72.5105 94.5642 68.7239C93.8191 67.6605 93.1727 66.5332 92.6327 65.3556C92.3993 64.728 92.4205 64.3724 92.5903 64.0377C92.7494 63.7889 92.9589 63.5752 93.2058 63.41C94.0336 62.8661 94.9038 62.3222 95.4768 61.9456C96.5168 61.2761 97.3446 60.7531 97.854 60.3975C99.8491 59.0377 101.229 57.5732 102.099 55.9414C102.705 54.8174 103.058 53.5779 103.135 52.3073C103.212 51.0366 103.011 49.7645 102.545 48.5774C101.229 45.1674 97.9601 43.0544 93.9911 43.0544C93.1567 43.0511 92.3242 43.1353 91.5078 43.3054C91.2956 43.3473 91.0621 43.41 90.8499 43.4519C90.8923 41.1088 90.8286 38.6611 90.6164 36.2343C89.8735 27.6987 86.8384 23.2427 83.6759 19.6653C81.6622 17.429 79.2887 15.5347 76.6506 14.0586C71.8538 11.3598 66.4203 10 60.4987 10C54.577 10 49.1647 11.3598 44.368 14.0586C41.7137 15.5293 39.3253 17.4239 37.3002 19.6653C34.1377 23.2218 31.1026 27.6987 30.3597 36.2343C30.1475 38.6611 30.105 41.1297 30.1262 43.4519C29.914 43.3891 29.7018 43.3473 29.4683 43.3054C28.6519 43.1353 27.8194 43.0511 26.985 43.0544C23.016 43.0544 19.7474 45.1674 18.4315 48.5774C17.9621 49.763 17.7571 51.0343 17.8304 52.305C17.9036 53.5756 18.2534 54.8158 18.856 55.9414C19.7262 57.5732 21.127 59.0167 23.1009 60.3975C23.6315 60.7531 24.4593 61.2761 25.4781 61.9456C26.0299 62.3013 26.8577 62.8243 27.6642 63.3473C27.9447 63.5259 28.1834 63.7612 28.3646 64.0377C28.5344 64.3724 28.5344 64.749 28.2797 65.4184C27.7509 66.5733 27.1187 67.6795 26.3907 68.7239C23.8225 72.4268 20.1507 75.5439 15.4813 78.0544C13.0404 79.3724 10.451 80.251 9.36857 83.159C8.54081 85.3556 9.09265 87.8661 11.1727 89.9791C11.9383 90.7683 12.8268 91.4322 13.8045 91.9456C15.8359 93.0439 17.9955 93.8939 20.2356 94.477C20.6962 94.5925 21.1338 94.7834 21.5303 95.0418C22.2944 95.6904 22.1882 96.6946 23.1858 98.1381C23.6965 98.8845 24.3444 99.5302 25.096 100.042C27.2185 101.485 29.6169 101.59 32.1426 101.674C34.4348 101.757 37.0242 101.862 39.9745 102.824C41.2055 103.222 42.479 103.996 43.9435 104.895C47.5092 107.071 52.3696 110 60.4987 110C68.6277 110 73.5094 107.05 77.0751 104.895C78.5396 104.017 79.8131 103.243 81.0016 102.845C83.9519 101.883 86.5625 101.778 88.8335 101.695C91.3593 101.59 93.7576 101.506 95.8801 100.063C96.7685 99.4489 97.5078 98.6487 98.045 97.7197C98.7666 96.5063 98.7454 95.6485 99.4458 95.0418C99.8223 94.7937 100.238 94.6098 100.677 94.4979C102.947 93.9135 105.135 93.0563 107.193 91.9456C108.23 91.3958 109.163 90.674 109.952 89.8117L109.973 89.7908C111.947 87.7197 112.435 85.2929 111.629 83.1381ZM104.412 86.9665C100.019 89.3724 97.0899 89.1004 94.7976 90.5439C92.8662 91.7782 94.0123 94.4142 92.6115 95.3766C90.8923 96.5481 85.7772 95.2929 79.1976 97.4477C73.7641 99.2259 70.2832 104.31 60.5199 104.31C50.7566 104.31 47.3606 99.2259 41.821 97.4268C35.2414 95.272 30.1262 96.5481 28.4071 95.3556C27.0062 94.3933 28.1524 91.7573 26.2209 90.523C23.9499 89.0795 21.0209 89.3305 16.6062 86.9456C13.8045 85.4184 15.3964 84.477 16.3302 84.0377C32.2699 76.4226 34.8169 64.6653 34.9442 63.8075C35.0716 62.7615 35.2414 61.9247 34.0528 60.8577C32.9067 59.8117 27.8552 56.7364 26.4544 55.7741C24.1409 54.1841 23.1221 52.5732 23.865 50.6276C24.3956 49.2678 25.6691 48.7657 27.0275 48.7657C27.4561 48.7684 27.8832 48.8175 28.3009 48.9121C30.8479 49.4561 33.3312 50.7113 34.7532 51.046C34.927 51.0875 35.1051 51.1085 35.2838 51.1088C36.0479 51.1088 36.3238 50.7322 36.2602 49.8745C36.0904 47.1339 35.7083 41.7782 36.1328 36.7782C36.7271 29.8954 38.9769 26.4854 41.6512 23.4728C42.9459 22.0293 48.9737 15.7322 60.5199 15.7322C72.0661 15.7322 78.1151 21.9874 79.3886 23.431C82.0629 26.4435 84.3127 29.8536 84.907 36.7364C85.3527 41.7364 84.9706 47.092 84.7796 49.8326C84.7159 50.7322 84.9919 51.0669 85.756 51.0669C85.9347 51.0669 86.1129 51.0458 86.2866 51.0042C87.7086 50.6695 90.1919 49.4142 92.7389 48.8703C93.1566 48.7757 93.5837 48.7266 94.0123 48.7238C95.3707 48.7238 96.6442 49.2469 97.1748 50.5858C97.9177 52.5523 96.9201 54.1423 94.5854 55.7322C93.1846 56.6946 88.1331 59.7699 86.987 60.8159C85.7984 61.8828 85.9682 62.7197 86.0956 63.7657C86.2017 64.6444 88.7486 76.4017 104.71 83.9958C105.622 84.477 107.214 85.4184 104.412 86.9665Z" fill="white"/>
</svg>
