<svg width="120" height="120" viewBox="0 0 120 120" fill="none" xmlns="http://www.w3.org/2000/svg">
<rect width="120" height="120" fill="black"/>
<path d="M100.386 29.0355L100.387 29.0359C104.534 30.085 107.769 33.1745 108.867 37.0703C109.919 40.8061 110.459 46.6478 110.73 51.6307C110.865 54.1065 110.933 56.3438 110.966 57.9623C110.983 58.7712 110.992 59.425 110.996 59.8759C110.998 60.1013 110.999 60.276 110.999 60.394L111 60.5277L111 60.5613L111 60.5695V60.5714V60.5719V60.5723V60.5743L111 60.5825L111 60.616L110.999 60.7497C110.999 60.8677 110.998 61.0424 110.996 61.2679C110.992 61.7188 110.983 62.3725 110.966 63.1815C110.933 64.7999 110.865 67.0372 110.73 69.5131C110.459 74.4954 109.919 80.3365 108.867 84.0723C107.774 87.9353 104.551 90.9108 100.387 91.9641L100.386 91.9645C98.4575 92.4558 94.9898 92.8395 90.7927 93.1306C86.6226 93.4199 81.8122 93.6131 77.2464 93.7421C72.6821 93.871 68.3698 93.9355 65.198 93.9678C63.6124 93.9839 62.3122 93.9919 61.4088 93.996C60.9571 93.998 60.6045 93.999 60.3651 93.9995L60.0925 93.9999L60.0231 94L60.0057 94H60.0014H60.0003C60.0001 94 60 94 60 95C60 94 59.9999 94 59.9997 94H59.9986H59.9943L59.9769 94L59.9075 93.9999L59.6349 93.9995C59.3955 93.999 59.0429 93.998 58.5912 93.996C57.6878 93.9919 56.3876 93.9839 54.802 93.9678C51.6302 93.9355 47.3179 93.871 42.7536 93.7421C38.1878 93.6131 33.3774 93.4199 29.2073 93.1306C25.0102 92.8395 21.5425 92.4558 19.6141 91.9645L19.6125 91.9641C15.4473 90.9104 12.2257 87.952 11.1332 84.0735C10.0813 80.3377 9.54136 74.4959 9.26985 69.5131C9.13494 67.0372 9.06745 64.7999 9.0337 63.1815C9.01683 62.3725 9.0084 61.7188 9.0042 61.2679C9.00209 61.0424 9.00104 60.8677 9.00052 60.7497L9.00006 60.616L9.00001 60.5825L9 60.5743L9 60.5723L9 60.5719L8 60.5719L9 60.5718L9 60.5714L9 60.5695L9.00001 60.5613L9.00006 60.5277L9.00052 60.394C9.00104 60.276 9.00209 60.1013 9.0042 59.8759C9.0084 59.425 9.01683 58.7712 9.0337 57.9623C9.06745 56.3438 9.13494 54.1065 9.26985 51.6307C9.54136 46.6478 10.0812 40.8061 11.1332 37.0703C12.2306 33.1745 15.4658 30.085 19.6125 29.0359L19.6141 29.0355C21.5425 28.5442 25.0102 28.1605 29.2073 27.8694C33.3774 27.5801 38.1878 27.3869 42.7536 27.2579C47.3179 27.129 51.6302 27.0645 54.802 27.0322C56.3876 27.0161 57.6878 27.0081 58.5912 27.004C59.0429 27.002 59.3955 27.001 59.6349 27.0005L59.9075 27.0001L59.9769 27L59.9943 27L59.9986 27L59.9997 27C59.9999 27 60 27 60 26C60 27 60.0001 27 60.0003 27L60.0014 27L60.0057 27L60.0231 27L60.0925 27.0001L60.3651 27.0005C60.6045 27.001 60.9571 27.002 61.4088 27.004C62.3122 27.0081 63.6124 27.0161 65.198 27.0322C68.3698 27.0645 72.6821 27.129 77.2464 27.2579C81.8122 27.3869 86.6226 27.5801 90.7927 27.8694C94.9898 28.1605 98.4575 28.5442 100.386 29.0355ZM48.3753 75.1625V76.8346L49.8484 76.0435L77.0194 61.4529L78.6601 60.5719L77.0194 59.6909L49.8484 45.1002L48.3753 44.3092V45.9812V75.1625Z" fill="white" stroke="black" stroke-width="2"/>
</svg>
